<svg width="76" height="67" viewBox="0 0 76 67" fill="none" xmlns="http://www.w3.org/2000/svg">
<path d="M37.9118 26.7854C34.2102 26.7854 31.1957 29.8 31.1957 33.5016C31.1957 37.2033 34.2102 40.2178 37.9118 40.2178C41.6135 40.2178 44.628 37.2033 44.628 33.5016C44.628 29.8 41.6135 26.7854 37.9118 26.7854ZM19.1094 46.8492L17.6269 46.4821C6.59488 43.6864 0.259949 38.9564 0.259949 33.4898C0.259949 28.0233 6.59723 23.2932 17.6269 20.4976L19.1094 20.1305L19.5259 21.6013C20.6414 25.4488 22.0745 29.1999 23.8041 32.8286L24.1218 33.4898L23.8041 34.1629C22.0769 37.7774 20.6414 41.5285 19.5259 45.3902L19.1094 46.8492ZM16.9421 23.9286C8.55748 26.2819 3.41094 29.8964 3.41094 33.4898C3.41094 37.0832 8.55983 40.6837 16.9421 43.0511C17.9728 39.7777 19.2106 36.5914 20.6555 33.4898C19.2083 30.3883 17.9704 27.202 16.9421 23.9286V23.9286ZM56.7142 46.8492L56.2977 45.3784C55.1823 41.5309 53.7491 37.7798 52.0195 34.1629L51.7018 33.4898L52.0195 32.8168C53.7468 29.2022 55.1823 25.4512 56.2977 21.5895L56.7142 20.1305L58.1968 20.4976C69.2288 23.2932 75.5637 28.0233 75.5637 33.4898C75.5637 38.9564 69.2264 43.6864 58.1968 46.4821L56.7142 46.8492ZM55.1681 33.4898C56.6766 36.7491 57.9261 39.9495 58.8816 43.0511C67.2779 40.686 72.4127 37.0832 72.4127 33.4898C72.4127 29.8964 67.2638 26.296 58.8816 23.9286C57.8508 27.1879 56.613 30.3883 55.1681 33.4898ZM16.9162 23.9168L16.4997 22.4461C13.3981 11.5129 14.3417 3.66956 19.0859 0.935089C23.743 -1.74996 31.2074 1.42456 39.039 9.46559L40.105 10.5575L39.039 11.6494C36.2575 14.5415 33.7207 17.6549 31.4404 20.9635L31.0121 21.5636L30.2756 21.6248C26.268 21.9425 22.2957 22.5802 18.3987 23.538L16.9162 23.9168ZM22.8723 3.1189C22.0274 3.1189 21.2791 3.29068 20.6531 3.65779C17.5398 5.46037 16.9891 11.7106 19.133 20.1422C22.4793 19.3939 25.8609 18.8668 29.2825 18.5609C31.2427 15.7652 33.4007 13.0943 35.7162 10.581C30.8262 5.81336 26.1927 3.11654 22.8723 3.11654V3.1189ZM52.9632 66.9976C52.9514 66.9976 52.9514 66.9976 52.9632 66.9976C48.4896 66.9976 42.7407 63.6396 36.7846 57.5117L35.7186 56.4198L36.7846 55.3279C39.5662 52.4358 42.1029 49.3224 44.3832 46.0138L44.7998 45.4137L45.5363 45.3408C49.5439 45.0348 53.5162 44.3971 57.4249 43.4276L58.9075 43.0605L59.324 44.5312C62.4255 55.4644 61.4819 63.296 56.7378 66.0281C55.5847 66.6894 54.2857 67.0212 52.9632 66.9953V66.9976ZM40.105 56.3963C44.9951 61.164 49.6286 63.8608 52.949 63.8608H52.9608C53.7939 63.8608 54.5422 63.6772 55.1681 63.3219C58.2815 61.5193 58.8463 55.2691 56.6883 46.8374C53.342 47.5858 49.9463 48.1129 46.5388 48.407C44.5786 51.2145 42.4206 53.8736 40.105 56.3986V56.3963ZM58.9075 23.9168L57.4249 23.538C53.5162 22.5826 49.5439 21.9448 45.5363 21.6248L44.7998 21.5636L44.3832 20.9635C42.1029 17.6549 39.5662 14.5415 36.7846 11.6494L35.7186 10.5575L36.7846 9.46559C44.6162 1.42456 52.0807 -1.74996 56.7378 0.935089C61.4819 3.6672 62.4255 11.5129 59.324 22.4461L58.9075 23.9168ZM46.5412 18.5609C50.1204 18.8927 53.5279 19.4198 56.6907 20.1422C58.8486 11.7106 58.2838 5.45802 55.1705 3.65779C52.0689 1.86933 46.2352 4.61321 40.1074 10.5834C42.423 13.1084 44.5691 15.7676 46.5412 18.5632V18.5609ZM22.8723 66.9976C21.5474 67.0212 20.2366 66.6917 19.0859 66.0305C14.3417 63.2983 13.3981 55.4644 16.4997 44.5336L16.9162 43.0628L18.3987 43.4299C22.0274 44.35 26.0232 44.9854 30.2756 45.3431L31.0121 45.4161L31.4286 46.0161C33.7089 49.3248 36.2457 52.4381 39.0273 55.3303L40.0933 56.4222L39.0273 57.5141C33.083 63.6419 27.334 67 22.8723 67V66.9976ZM19.1353 46.8374C16.9774 55.2691 17.5422 61.5217 20.6555 63.3219C23.7571 65.0868 29.579 62.3665 35.7186 56.3963C33.403 53.8713 31.2451 51.2121 29.2848 48.4047C25.8656 48.1105 22.4816 47.5834 19.1353 46.8351V46.8374ZM37.9118 48.8094C35.3256 48.8094 32.6782 48.6988 30.019 48.4776L29.2825 48.4164L28.8542 47.8046C27.3599 45.6467 25.9362 43.4299 24.6254 41.1496C23.3005 38.8693 22.0886 36.542 20.9614 34.1629L20.6437 33.4898L20.9614 32.8168C22.0886 30.44 23.3029 28.1103 24.6254 25.83C25.9244 23.5874 27.3458 21.3448 28.8542 19.1751L29.2825 18.5632L30.019 18.502C35.2762 18.0596 40.5592 18.0596 45.8046 18.502L46.5412 18.5632L46.9695 19.1751C49.9722 23.4886 52.6196 28.0609 54.8622 32.8168L55.1799 33.4898L54.8622 34.1629C52.6196 38.9188 49.984 43.4911 46.9695 47.8046L46.5412 48.4164L45.8046 48.4776C43.1572 48.6988 40.498 48.8094 37.9118 48.8094V48.8094ZM31.0239 45.4019C35.6574 45.7573 40.1662 45.7573 44.8115 45.4019C47.3977 41.6156 49.7016 37.6315 51.6995 33.4875C49.7133 29.3458 47.4095 25.3617 44.7998 21.573C40.2156 21.2177 35.608 21.2177 31.0239 21.573C28.4141 25.3594 26.108 29.3434 24.1242 33.4875C26.1221 37.6292 28.4259 41.6132 31.0239 45.4019Z" fill="white"/>
</svg>
