<svg width="67" height="66" viewBox="0 0 67 66" fill="none" xmlns="http://www.w3.org/2000/svg">
<path d="M56.763 56.2447H47.0015V40.927C47.0015 37.2744 46.9252 32.5803 41.897 32.5803C36.8069 32.5803 36.0314 36.5422 36.0314 40.6568V56.2426H26.2575V24.7472H35.6457V29.0432H35.7715C37.0833 26.5621 40.2738 23.9531 45.0339 23.9531C54.9357 23.9531 56.7733 30.4725 56.7733 38.9491V56.2426L56.763 56.2447ZM15.2152 20.4429C12.0659 20.4429 9.54148 17.8958 9.54148 14.7588C9.54148 11.6321 12.0762 9.08915 15.2152 9.08915C18.3543 9.08915 20.8973 11.6321 20.8973 14.7588C20.8973 17.8958 18.3543 20.4429 15.2152 20.4429V20.4429ZM20.1115 56.2447H10.317V24.7492H20.1115V56.2447ZM61.6634 0H5.40836C2.72101 0 0.541016 2.12637 0.541016 4.75804V61.242C0.541016 63.8736 2.72101 66 5.40836 66H61.653C64.3363 66 66.539 63.8736 66.539 61.242V4.75804C66.539 2.12637 64.3363 0 61.653 0L61.6634 0Z" fill="white"/>
</svg>
