<svg width="68" height="66" viewBox="0 0 68 66" fill="none" xmlns="http://www.w3.org/2000/svg">
<path d="M33.8334 0.00211456C15.1426 0.00211456 0 15.1574 0 33.8355C0 48.792 9.69328 61.469 23.1273 65.9414C24.8253 66.2607 25.4385 65.2139 25.4385 64.3089C25.4385 63.5053 25.4195 61.3802 25.4068 58.5593C15.9905 60.5978 14.007 54.0108 14.007 54.0108C12.4655 50.1115 10.241 49.0648 10.241 49.0648C7.17903 46.9735 10.4841 47.0179 10.4841 47.0179C13.8759 47.2484 15.6606 50.4964 15.6606 50.4964C18.6782 55.6729 23.5777 54.1758 25.5167 53.3046C25.8128 51.1244 26.6946 49.6252 27.6546 48.7899C20.1436 47.942 12.2456 45.0344 12.2456 32.0699C12.2456 28.3672 13.5566 25.3518 15.7241 22.9835C15.3498 22.1355 14.2037 18.6887 16.0222 14.0282C16.0222 14.0282 18.8537 13.1253 25.3264 17.4982C28.0352 16.7475 30.9111 16.3733 33.7848 16.3542C36.6606 16.3733 39.5344 16.7497 42.2431 17.4982C48.6778 13.1253 51.5072 14.0282 51.5072 14.0282C53.3236 18.6887 52.1775 22.1334 51.8476 22.9835C53.9939 25.3518 55.305 28.3693 55.305 32.0699C55.305 45.064 47.3964 47.9293 39.8769 48.7561C41.0526 49.769 42.1543 51.8518 42.1543 55.0131C42.1543 59.5384 42.112 63.1839 42.112 64.2856C42.112 65.1653 42.7041 66.2226 44.4465 65.8821C57.9799 61.4563 67.6626 48.7688 67.6626 33.8334C67.6626 15.1553 52.5201 0 33.8292 0L33.8334 0.00211456Z" fill="white"/>
</svg>
