<svg width="67" height="66" viewBox="0 0 67 66" fill="none" xmlns="http://www.w3.org/2000/svg">
<path d="M33.5 0C24.3931 0 23.2582 0.0433179 19.6942 0.191836C16.1155 0.365108 13.6948 0.911739 11.5589 1.72859C9.35604 2.57845 7.47981 3.70678 5.62661 5.54263C3.76084 7.36817 2.60495 9.2164 1.75478 11.3864C0.925553 13.4904 0.37064 15.875 0.194743 19.4002C0.0335042 22.9131 0 24.0291 0 33C0 41.9709 0.0439743 43.0889 0.194743 46.5998C0.37064 50.1147 0.925553 52.5096 1.75478 54.6136C2.61751 56.7836 3.76294 58.6318 5.62661 60.4574C7.47981 62.2953 9.35604 63.4339 11.5589 64.2714C13.6948 65.0779 16.126 65.6349 19.6942 65.8082C23.2603 65.967 24.3931 66 33.5 66C42.6069 66 43.7418 65.9567 47.3058 65.8082C50.874 65.6349 53.3052 65.0759 55.4411 64.2714C57.644 63.4216 59.5202 62.2932 61.3734 60.4574C63.2392 58.6318 64.395 56.7939 65.2452 54.6136C66.064 52.5096 66.6294 50.1147 66.8053 46.5998C66.9665 43.0869 67 41.9709 67 33C67 24.0291 66.956 22.911 66.8053 19.4002C66.6294 15.8853 66.0619 13.4781 65.2452 11.3864C64.3825 9.2164 63.2371 7.36817 61.3734 5.54263C59.5202 3.70471 57.6544 2.56607 55.4411 1.72859C53.3052 0.911739 50.874 0.365108 47.3058 0.191836C43.7397 0.0330041 42.6069 0 33.5 0V0ZM33.5 5.94074C42.4435 5.94074 43.5115 5.98406 47.0462 6.13258C50.3065 6.28316 52.0823 6.81948 53.2612 7.27328C54.8338 7.87355 55.9331 8.58314 57.1225 9.7424C58.2889 10.8914 59.0092 11.9867 59.6186 13.5358C60.0793 14.6971 60.6237 16.4464 60.7766 19.6581C60.9274 23.14 60.9713 24.1941 60.9713 33.0021C60.9713 41.81 60.9274 42.8641 60.764 46.346C60.5881 49.5578 60.0437 51.307 59.5851 52.4683C58.9506 54.0174 58.2428 55.1004 57.0744 56.272C55.8955 57.421 54.7731 58.1306 53.213 58.7308C52.0488 59.1846 50.2479 59.721 46.975 59.8715C43.4214 60.0201 42.3744 60.0634 33.4079 60.0634C24.4413 60.0634 23.3964 60.0201 19.8387 59.8592C16.5783 59.6859 14.7795 59.1496 13.6006 58.6978C12.0092 58.0728 10.9182 57.3756 9.74972 56.2246C8.57079 55.0633 7.82113 53.9576 7.24319 52.4209C6.77413 51.274 6.23806 49.5 6.06426 46.2759C5.9449 42.8167 5.88836 41.744 5.88836 32.9526C5.88836 24.1652 5.9449 23.0905 6.06426 19.5879C6.23806 16.3639 6.77413 14.594 7.24319 13.443C7.82113 11.8732 8.57288 10.8006 9.74972 9.63927C10.9161 8.49031 12.0092 7.74772 13.6006 7.16602C14.7795 6.71428 16.5343 6.17796 19.8073 6.01706C23.3608 5.89124 24.4078 5.84586 33.3618 5.84586L33.5 5.94074ZM33.5 16.0627C23.9911 16.0627 16.3019 23.6475 16.3019 33.0041C16.3019 42.3711 24.0016 49.9456 33.5 49.9456C43.0089 49.9456 50.6981 42.3608 50.6981 33.0041C50.6981 23.6371 42.9984 16.0627 33.5 16.0627V16.0627ZM33.5 44.0048C27.3269 44.0048 22.3326 39.0851 22.3326 33.0041C22.3326 26.9231 27.3269 22.0034 33.5 22.0034C39.6731 22.0034 44.6674 26.9231 44.6674 33.0041C44.6674 39.0851 39.6731 44.0048 33.5 44.0048V44.0048ZM55.4117 15.3861C55.4117 17.5788 53.6004 19.3487 51.385 19.3487C49.159 19.3487 47.3624 17.5768 47.3624 15.3861C47.3624 13.2058 49.1716 11.4318 51.385 11.4318C53.5983 11.4318 55.4117 13.2058 55.4117 15.3861V15.3861Z" fill="white"/>
</svg>
