<svg width="66" height="66" viewBox="0 0 66 66" fill="none" xmlns="http://www.w3.org/2000/svg">
<path d="M0 33V66H66V0H0V33ZM53.1836 30.3682C54.8604 30.7869 56.1371 31.5398 57.3189 32.7525C57.9212 33.396 58.8225 34.5778 58.8988 34.8686C58.9194 34.9553 56.0526 36.8775 54.3118 37.9521C54.2479 37.9954 53.9901 37.7272 53.7096 37.3065C52.8619 36.0711 51.9688 35.5348 50.6055 35.4379C48.6069 35.3079 47.3179 36.3516 47.3282 38.1026C47.3179 38.5316 47.4148 38.9627 47.6066 39.3381C48.048 40.2517 48.8751 40.7983 51.4305 41.9059C56.1578 43.9354 58.1769 45.2781 59.433 47.1797C60.8396 49.3061 61.1511 52.701 60.2064 55.2358C59.1546 57.9748 56.5538 59.8434 52.9011 60.456C51.7729 60.6602 49.0875 60.6272 47.8727 60.4024C45.2203 59.9301 42.7061 58.6183 41.1592 56.9002C40.5467 56.2341 39.3649 54.483 39.4412 54.3654C39.4742 54.3221 39.7423 54.1509 40.0434 53.9777C40.3446 53.8044 41.4501 53.1609 42.4937 52.5587L44.3953 51.4532L44.7934 52.0431C45.3523 52.8907 46.5651 54.0519 47.2972 54.4376C49.4031 55.5555 52.2926 55.3946 53.7219 54.1159C54.3015 53.6333 54.6253 52.8908 54.582 52.14C54.582 51.3769 54.4851 51.0345 54.087 50.4632C53.5714 49.7331 52.5298 49.1102 49.5536 47.8211C46.1484 46.3485 44.6758 45.4472 43.3455 43.9973C42.5081 43.0403 41.8852 41.9141 41.5305 40.6993C41.283 39.765 41.2191 37.422 41.4129 36.4877C42.1121 33.1898 44.6036 30.9024 48.18 30.2259C49.3412 30.0011 52.0472 30.0857 53.1857 30.3662L53.1836 30.3682ZM37.6942 33.1299L37.7149 35.8256H29.1204V60.2436H23.0402V35.8256H14.4581V33.1836C14.4581 31.7109 14.4911 30.4879 14.5324 30.4549C14.5654 30.4116 19.7856 30.3909 26.1236 30.4012L37.6613 30.4342L37.6942 33.1299Z" fill="white"/>
</svg>
