<svg width="67" height="66" viewBox="0 0 67 66" fill="none" xmlns="http://www.w3.org/2000/svg">
<path d="M0.540001 0V66H66.54V0H0.540001ZM36.4581 51.4729C36.4581 57.8961 32.6867 60.8284 27.1922 60.8284C22.2281 60.8284 19.3547 58.2662 17.8815 55.1571L22.9352 52.107C23.9087 53.8301 24.7926 55.2891 26.9282 55.2891C28.9601 55.2891 30.2565 54.4924 30.2565 51.3857V30.3034H36.4581V51.4729ZM51.129 60.8284C45.3681 60.8284 41.6415 58.0894 39.8289 54.4924L44.8826 51.5766C46.2096 53.7429 47.9469 55.3481 50.997 55.3481C53.5592 55.3481 55.2116 54.0658 55.2116 52.2838C55.2116 50.1624 53.5309 49.4104 50.6882 48.1588L49.1419 47.4964C44.6634 45.5966 41.7028 43.1946 41.7028 38.1409C41.7028 33.4856 45.2526 29.9499 50.7778 29.9499C54.726 29.9499 57.5546 31.3194 59.5888 34.914L54.7566 38.0089C53.6959 36.1091 52.5456 35.3571 50.7636 35.3571C48.9534 35.3571 47.8031 36.5074 47.8031 38.0089C47.8031 39.8664 48.9534 40.6159 51.6193 41.7804L53.1656 42.4427C58.4409 44.6961 61.4014 47.0109 61.4014 52.1942C61.4014 57.7641 57.0101 60.8261 51.1314 60.8261L51.129 60.8284Z" fill="white"/>
</svg>
